<?xml version="1.0" standalone="no"?>
<!DOCTYPE svg PUBLIC "-//W3C//DTD SVG 20010904//EN"
 "http://www.w3.org/TR/2001/REC-SVG-20010904/DTD/svg10.dtd">
<svg version="1.0" xmlns="http://www.w3.org/2000/svg"
 width="400.000000pt" height="400.000000pt" viewBox="0 0 400.000000 400.000000"
 preserveAspectRatio="xMidYMid meet">
<metadata>
Created by potrace 1.11, written by Peter Selinger 2001-2013
</metadata>
<g transform="translate(0.000000,400.000000) scale(0.100000,-0.100000)"
fill="#000000" stroke="none">
<path d="M1580 3894 c-96 -28 -261 -97 -365 -152 -69 -37 -70 -37 -69 -77 0
-22 19 -90 42 -150 23 -61 42 -119 42 -128 0 -19 -222 -239 -245 -245 -8 -2
-66 17 -130 42 -139 55 -185 59 -212 19 -75 -111 -213 -437 -213 -505 0 -35
33 -60 130 -102 47 -20 102 -48 122 -61 l37 -24 0 -170 0 -171 -27 -18 c-15
-11 -72 -39 -127 -63 -105 -46 -145 -75 -145 -108 0 -31 99 -309 137 -385 61
-122 81 -146 120 -146 18 0 66 12 106 26 39 15 98 34 129 42 l57 16 101 -104
c56 -58 105 -112 110 -121 6 -11 -5 -57 -36 -144 -47 -138 -53 -175 -28 -199
53 -54 261 -152 434 -206 l105 -32 25 31 c15 17 41 66 60 108 18 43 45 97 59
121 24 40 28 42 61 38 19 -3 101 -8 181 -12 l145 -6 26 -47 c15 -25 36 -71 48
-101 12 -30 32 -74 46 -97 l24 -41 107 28 c177 46 343 114 426 172 38 27 35
66 -13 193 -22 58 -40 117 -40 132 0 21 26 52 122 145 140 136 120 131 263 66
99 -45 166 -58 190 -38 21 18 118 200 153 290 17 41 41 112 55 158 l25 82 -23
29 c-14 15 -57 45 -97 66 -40 21 -95 52 -123 70 l-50 32 1 151 c1 113 5 156
15 169 8 9 69 42 136 74 150 71 159 82 138 165 -31 118 -67 212 -133 344 -66
133 -68 135 -103 138 -23 2 -72 -11 -142 -38 -127 -49 -164 -53 -186 -19 -9
13 -62 70 -119 126 -119 117 -115 96 -46 260 54 126 55 152 11 186 -81 62
-388 192 -479 204 -33 4 -53 2 -64 -8 -9 -7 -38 -58 -66 -113 -28 -56 -60
-115 -73 -132 l-23 -30 -164 0 -163 1 -55 111 c-75 151 -97 184 -123 183 -12
0 -60 -11 -107 -25z m709 -504 c326 -85 574 -286 723 -585 116 -231 145 -519
77 -767 -28 -102 -116 -279 -187 -374 -106 -141 -224 -244 -357 -312 -397
-199 -810 -171 -1164 78 -95 68 -217 191 -278 283 -177 264 -232 648 -134 932
34 98 99 228 156 315 48 73 174 201 250 256 105 75 293 154 440 185 124 26
352 20 474 -11z"/>
<path d="M1885 3370 c-298 -42 -545 -190 -727 -434 -189 -253 -245 -592 -152
-916 108 -374 425 -662 812 -736 155 -30 384 -14 542 37 303 99 562 357 667
664 120 352 28 780 -226 1058 -120 131 -326 252 -511 302 -106 28 -299 40
-405 25z m-55 -28 c0 -11 -22 -32 -32 -32 -5 0 -4 9 2 20 11 20 30 28 30 12z
m507 -28 c-2 -3 -31 -8 -63 -12 l-59 -7 55 -43 c86 -68 111 -93 108 -111 -4
-22 -58 -28 -58 -7 0 18 -4 19 -49 10 -17 -4 -29 -10 -26 -14 3 -4 -6 -11 -20
-14 -28 -7 -32 -18 -11 -36 8 -6 13 -17 10 -25 -8 -20 17 -30 31 -12 15 20 78
19 70 -1 -3 -8 -5 -19 -5 -26 0 -7 -17 -18 -39 -24 -28 -9 -42 -20 -51 -42 -8
-18 -20 -30 -31 -30 -20 0 -22 -10 -19 -69 2 -30 -11 -50 -32 -51 -3 0 -20 12
-37 26 -30 25 -31 25 -55 7 -47 -34 -19 -113 41 -113 15 0 34 -4 42 -9 19 -12
66 11 87 44 9 14 22 25 29 25 7 0 18 7 25 15 19 23 33 18 62 -25 17 -24 36
-40 48 -40 25 0 25 5 0 37 -27 34 -27 74 0 70 24 -4 60 -49 60 -76 0 -23 52
-61 83 -61 20 0 21 4 5 29 -9 15 -9 23 1 35 26 31 37 16 50 -66 l8 -46 -54 -7
c-36 -4 -53 -11 -53 -21 0 -30 -89 -4 -139 42 -45 40 -53 41 -106 14 -22 -11
-47 -17 -57 -14 -10 3 -29 -3 -44 -15 -15 -12 -35 -21 -44 -21 -24 0 -109 -95
-115 -129 -3 -14 -14 -53 -25 -86 -27 -80 -25 -101 9 -140 16 -19 32 -51 36
-73 3 -22 12 -47 18 -56 16 -22 118 -38 190 -30 52 6 57 9 57 30 0 30 16 31
40 2 16 -21 21 -22 52 -10 19 6 37 12 41 12 13 0 7 -31 -13 -70 -25 -50 -25
-72 1 -96 17 -16 20 -27 16 -67 -2 -26 -12 -56 -21 -66 -15 -16 -17 -34 -12
-123 12 -248 19 -264 94 -227 30 15 44 30 52 55 9 25 27 45 68 72 48 31 63 49
92 108 19 39 50 87 68 108 17 20 32 41 32 46 0 5 15 32 33 61 26 42 33 66 37
122 5 66 7 72 35 87 18 10 31 26 33 41 1 13 10 40 18 60 9 20 14 47 12 60 -3
26 -7 26 -93 13 l-40 -6 -38 66 c-22 36 -50 75 -63 85 -18 14 -24 28 -24 60 0
28 4 41 14 41 7 0 46 -38 87 -85 68 -80 75 -85 112 -85 33 0 38 3 32 18 -5 9
-13 36 -20 60 -6 24 -15 44 -21 45 -5 1 -16 16 -24 32 -8 17 -36 44 -62 60
-40 26 -68 59 -56 70 1 1 17 6 35 9 29 7 34 4 63 -38 18 -28 39 -46 50 -46 24
0 54 -51 116 -194 l47 -109 -6 -101 c-22 -381 -304 -738 -698 -883 -72 -27
-81 -28 -317 -31 -264 -4 -291 0 -418 58 -50 22 -66 36 -85 71 -14 24 -33 45
-44 47 -11 2 -30 13 -41 24 -19 17 -22 30 -22 106 1 96 9 122 39 122 11 0 29
5 39 10 15 8 21 6 28 -7 9 -15 12 -15 27 -3 12 10 15 27 14 64 -3 57 15 122
37 134 12 7 13 16 7 40 -9 33 -44 63 -130 108 -29 16 -53 32 -53 38 0 5 -7 16
-15 25 -9 9 -29 38 -45 64 -17 26 -45 57 -64 68 -19 11 -39 33 -46 50 -17 39
-58 73 -142 115 -37 19 -68 36 -68 39 0 2 7 23 16 46 11 27 13 43 7 47 -6 4
-12 46 -14 95 l-4 87 27 0 c17 0 33 9 46 27 25 34 35 26 42 -34 6 -52 30 -73
30 -26 0 23 8 35 37 54 21 13 49 41 62 62 13 20 31 37 38 37 8 0 35 11 61 25
26 14 52 25 57 25 20 0 88 39 117 67 17 16 28 37 28 54 0 15 6 29 12 31 20 7
-19 58 -44 58 -11 0 -35 -9 -54 -20 -39 -25 -52 -12 -24 23 l21 26 -25 16
c-19 13 -29 14 -45 5 -25 -13 -28 -2 -3 16 18 13 51 11 114 -8 45 -13 89 1
103 35 7 15 22 24 48 28 21 3 43 11 48 16 6 6 30 8 53 6 35 -4 46 -2 57 14 10
14 31 22 74 26 50 5 73 2 135 -20 43 -15 84 -24 93 -20 10 4 24 22 32 41 l14
34 61 -15 c33 -9 59 -17 57 -19z m-1307 -836 c12 -35 31 -78 42 -96 14 -22 17
-36 10 -45 -5 -7 -16 -31 -23 -54 -13 -44 -17 -47 -58 -36 l-24 6 5 132 c5
116 10 155 22 155 2 0 13 -28 26 -62z m28 -476 c36 -92 86 -223 90 -237 8 -25
-33 37 -63 95 -34 68 -67 160 -79 220 -6 32 -6 33 8 17 8 -10 28 -53 44 -95z"/>
<path d="M1833 3205 c-76 -68 -113 -123 -92 -136 20 -12 25 -12 72 12 23 12
54 22 69 21 16 0 28 3 28 8 0 5 16 18 35 30 20 12 35 30 35 41 0 12 9 21 25
25 42 11 29 32 -22 37 -27 2 -57 8 -68 11 -16 6 -35 -6 -82 -49z"/>
<path d="M1140 2656 c8 -7 31 -16 50 -20 l35 -6 -24 20 c-28 24 -85 29 -61 6z"/>
<path d="M2726 1784 c-3 -9 -6 -28 -6 -42 0 -18 -13 -38 -40 -63 -37 -34 -53
-69 -30 -69 5 0 28 16 50 36 31 28 40 44 40 69 0 18 7 38 15 45 8 7 15 19 15
26 0 19 -36 18 -44 -2z"/>
<path d="M1020 400 l0 -200 25 0 25 0 0 200 0 200 -25 0 -25 0 0 -200z"/>
<path d="M1120 400 l0 -200 65 0 65 0 0 30 c0 28 -2 30 -40 30 l-40 0 0 170 0
170 -25 0 -25 0 0 -200z"/>
<path d="M1280 400 l0 -200 65 0 65 0 0 30 c0 28 -2 30 -40 30 l-40 0 0 170 0
170 -25 0 -25 0 0 -200z"/>
<path d="M1440 400 l0 -200 25 0 25 0 0 200 0 200 -25 0 -25 0 0 -200z"/>
<path d="M1540 400 l0 -201 23 3 c21 3 22 8 27 111 l5 108 30 -111 c26 -100
31 -110 52 -110 l23 0 0 200 0 200 -25 0 -25 0 -1 -112 c-1 -122 0 -122 -42
27 -18 67 -26 81 -44 83 l-23 3 0 -201z"/>
<path d="M1777 588 c-28 -22 -37 -66 -37 -189 0 -137 13 -184 54 -195 44 -11
76 4 92 41 17 42 19 256 3 304 -17 48 -73 68 -112 39z m61 -186 c2 -137 2
-142 -18 -142 -19 0 -20 6 -20 138 0 76 3 142 7 146 21 21 28 -10 31 -142z"/>
<path d="M1940 400 l0 -200 25 0 25 0 0 200 0 200 -25 0 -25 0 0 -200z"/>
<path d="M2063 578 c-43 -48 -37 -95 27 -194 32 -48 41 -70 38 -96 -4 -42 -29
-44 -42 -3 -13 39 -11 38 -35 30 -30 -9 -28 -59 4 -90 41 -42 102 -30 125 25
19 45 7 91 -45 171 -31 48 -45 80 -43 98 4 33 30 34 38 1 5 -19 12 -24 30 -22
31 3 34 6 26 37 -16 62 -84 86 -123 43z"/>
<path d="M2290 570 c0 -25 4 -30 25 -30 l25 0 0 -171 0 -170 28 3 27 3 3 168
2 167 25 0 c21 0 25 5 25 30 l0 30 -80 0 -80 0 0 -30z"/>
<path d="M2480 400 l0 -201 63 3 c59 3 62 4 65 31 3 26 1 27 -37 27 l-41 0 0
54 c0 52 1 55 28 58 21 2 28 9 30 30 3 23 -1 27 -25 30 -26 3 -28 6 -31 56
l-3 52 41 0 c39 0 41 1 38 28 -3 26 -6 27 -65 30 l-63 3 0 -201z"/>
<path d="M2660 578 c-18 -20 -20 -35 -20 -178 0 -151 1 -157 23 -178 28 -27
67 -28 97 -4 16 13 24 32 28 70 4 51 4 52 -22 52 -21 0 -26 -5 -26 -26 0 -14
-5 -34 -11 -45 -8 -16 -13 -18 -25 -8 -11 9 -14 40 -14 134 0 130 4 155 25
155 14 0 25 -30 25 -68 0 -19 5 -23 23 -20 19 3 22 9 21 52 0 38 -5 53 -23 67
-31 26 -76 24 -101 -3z"/>
<path d="M2830 400 l0 -200 25 0 c25 0 25 1 25 91 0 88 1 90 23 87 21 -3 22
-8 25 -90 3 -86 3 -88 27 -88 l25 0 0 200 0 200 -25 0 c-24 0 -24 -2 -27 -82
-3 -75 -5 -83 -23 -83 -18 0 -20 8 -23 83 -3 80 -3 82 -27 82 l-25 0 0 -200z"/>
</g>
</svg>
